<svg width="490" height="29" viewBox="0 0 490 29" fill="none" xmlns="http://www.w3.org/2000/svg">
<rect x="85.9998" y="11" width="98.6528" height="4.99452" rx="2.49726" fill="#FFE69E"/>
<rect x="85.9998" y="11" width="49.3261" height="4.99452" rx="2.49726" fill="#FFE69E"/>
<rect x="319" y="13" width="98.6528" height="4.99452" rx="2.49726" fill="#EFF0F7"/>
<ellipse cx="17.0972" cy="14.1511" rx="17.0974" ry="14.1511" fill="#FFE69E"/>
<path d="M16.3683 20.2656V10.9856L14.5603 11.4016V10.1536L17.0403 9.06562H18.1283V20.2656H16.3683Z" fill="black"/>
<ellipse cx="253.097" cy="14.1511" rx="17.0974" ry="14.1511" fill="#EFF0F7"/>
<path d="M250.083 20.769V19.825C250.84 19.2277 251.555 18.625 252.227 18.017C252.91 17.3984 253.512 16.7904 254.035 16.193C254.568 15.5957 254.984 15.009 255.283 14.433C255.592 13.857 255.747 13.3024 255.747 12.769C255.747 12.3744 255.678 12.0064 255.539 11.665C255.411 11.3237 255.198 11.0517 254.899 10.849C254.6 10.6357 254.195 10.529 253.683 10.529C253.192 10.529 252.782 10.641 252.451 10.865C252.12 11.0784 251.87 11.3664 251.699 11.729C251.539 12.0917 251.459 12.481 251.459 12.897H250.163C250.163 12.161 250.318 11.5317 250.627 11.009C250.936 10.4757 251.358 10.0704 251.891 9.79304C252.424 9.51571 253.027 9.37704 253.699 9.37704C254.691 9.37704 255.502 9.65971 256.131 10.225C256.771 10.7797 257.091 11.6117 257.091 12.721C257.091 13.3824 256.926 14.0384 256.595 14.689C256.264 15.329 255.843 15.953 255.331 16.561C254.819 17.1584 254.27 17.7184 253.683 18.241C253.107 18.7637 252.568 19.233 252.067 19.649H257.475V20.769H250.083Z" fill="#6F6C90"/>
<ellipse cx="472.097" cy="14.1511" rx="17.0974" ry="14.1511" fill="#EFF0F7"/>
<path d="M471.74 20.961C471.025 20.961 470.38 20.833 469.804 20.577C469.228 20.3104 468.764 19.9157 468.412 19.393C468.071 18.8704 467.889 18.2197 467.868 17.441H469.228C469.239 18.081 469.463 18.6357 469.9 19.105C470.337 19.5637 470.951 19.793 471.74 19.793C472.529 19.793 473.121 19.5744 473.516 19.137C473.921 18.6997 474.124 18.1717 474.124 17.553C474.124 17.0304 473.996 16.6037 473.74 16.273C473.495 15.9424 473.159 15.697 472.732 15.537C472.316 15.377 471.857 15.297 471.356 15.297H470.524V14.161H471.356C472.081 14.161 472.647 13.9957 473.052 13.665C473.468 13.3344 473.676 12.8704 473.676 12.273C473.676 11.7717 473.511 11.361 473.18 11.041C472.86 10.7104 472.38 10.545 471.74 10.545C471.121 10.545 470.625 10.7317 470.252 11.105C469.879 11.4677 469.671 11.9264 469.628 12.481H468.268C468.3 11.873 468.46 11.3344 468.748 10.865C469.047 10.3957 469.452 10.033 469.964 9.77704C470.476 9.51038 471.068 9.37704 471.74 9.37704C472.465 9.37704 473.068 9.50504 473.548 9.76104C474.039 10.017 474.407 10.3584 474.652 10.785C474.908 11.2117 475.036 11.681 475.036 12.193C475.036 12.7584 474.881 13.2757 474.572 13.745C474.263 14.2037 473.799 14.513 473.18 14.673C473.841 14.8117 474.391 15.1264 474.828 15.617C475.265 16.1077 475.484 16.753 475.484 17.553C475.484 18.1717 475.34 18.7424 475.052 19.265C474.775 19.777 474.359 20.1877 473.804 20.497C473.249 20.8064 472.561 20.961 471.74 20.961Z" fill="#6F6C90"/>
</svg>
