<svg width="600" height="31" viewBox="0 0 600 31" fill="none" xmlns="http://www.w3.org/2000/svg">
<path d="M59.9998 16.4973C59.9998 15.1181 61.1179 14 62.4971 14H156.155C157.535 14 158.653 15.1181 158.653 16.4973C158.653 17.8765 157.535 18.9945 156.155 18.9945H62.4971C61.1179 18.9945 59.9998 17.8765 59.9998 16.4973Z" fill="#FFE69E"/>
<path d="M259 16.4973C259 15.1181 260.118 14 261.497 14H355.155C356.535 14 357.653 15.1181 357.653 16.4973C357.653 17.8765 356.535 18.9945 355.155 18.9945H261.497C260.118 18.9945 259 17.8765 259 16.4973Z" fill="#EFF0F7"/>
<path d="M443 14.4973C443 13.1181 444.118 12 445.497 12H539.156C540.535 12 541.653 13.1181 541.653 14.4973C541.653 15.8765 540.535 16.9945 539.156 16.9945H445.497C444.118 16.9945 443 15.8765 443 14.4973Z" fill="#EFF0F7"/>
<ellipse cx="17.0974" cy="16.1511" rx="17.0974" ry="14.1511" fill="#FFE69E"/>
<path d="M16.3686 22.2656V12.9856L14.5606 13.4016V12.1536L17.0406 11.0656H18.1286V22.2656H16.3686Z" fill="black"/>
<ellipse cx="210.097" cy="16.1511" rx="17.0974" ry="14.1511" fill="#EFF0F7"/>
<path d="M207.083 22.7695V21.8255C207.841 21.2282 208.555 20.6255 209.227 20.0175C209.91 19.3989 210.513 18.7909 211.035 18.1935C211.569 17.5962 211.985 17.0095 212.283 16.4335C212.593 15.8575 212.747 15.3029 212.747 14.7695C212.747 14.3749 212.678 14.0069 212.539 13.6655C212.411 13.3242 212.198 13.0522 211.899 12.8495C211.601 12.6362 211.195 12.5295 210.683 12.5295C210.193 12.5295 209.782 12.6415 209.451 12.8655C209.121 13.0789 208.87 13.3669 208.699 13.7295C208.539 14.0922 208.459 14.4815 208.459 14.8975H207.163C207.163 14.1615 207.318 13.5322 207.627 13.0095C207.937 12.4762 208.358 12.0709 208.891 11.7935C209.425 11.5162 210.027 11.3775 210.699 11.3775C211.691 11.3775 212.502 11.6602 213.131 12.2255C213.771 12.7802 214.091 13.6122 214.091 14.7215C214.091 15.3829 213.926 16.0389 213.595 16.6895C213.265 17.3295 212.843 17.9535 212.331 18.5615C211.819 19.1589 211.27 19.7189 210.683 20.2415C210.107 20.7642 209.569 21.2335 209.067 21.6495H214.475V22.7695H207.083Z" fill="#6F6C90"/>
<ellipse cx="404.097" cy="14.1511" rx="17.0974" ry="14.1511" fill="#EFF0F7"/>
<path d="M403.74 20.9615C403.025 20.9615 402.38 20.8335 401.804 20.5775C401.228 20.3109 400.764 19.9162 400.412 19.3935C400.071 18.8709 399.889 18.2202 399.868 17.4415H401.228C401.239 18.0815 401.463 18.6362 401.9 19.1055C402.337 19.5642 402.951 19.7935 403.74 19.7935C404.529 19.7935 405.121 19.5749 405.516 19.1375C405.921 18.7002 406.124 18.1722 406.124 17.5535C406.124 17.0309 405.996 16.6042 405.74 16.2735C405.495 15.9429 405.159 15.6975 404.732 15.5375C404.316 15.3775 403.857 15.2975 403.356 15.2975H402.524V14.1615H403.356C404.081 14.1615 404.647 13.9962 405.052 13.6655C405.468 13.3349 405.676 12.8709 405.676 12.2735C405.676 11.7722 405.511 11.3615 405.18 11.0415C404.86 10.7109 404.38 10.5455 403.74 10.5455C403.121 10.5455 402.625 10.7322 402.252 11.1055C401.879 11.4682 401.671 11.9269 401.628 12.4815H400.268C400.3 11.8735 400.46 11.3349 400.748 10.8655C401.047 10.3962 401.452 10.0335 401.964 9.77753C402.476 9.51086 403.068 9.37753 403.74 9.37753C404.465 9.37753 405.068 9.50553 405.548 9.76153C406.039 10.0175 406.407 10.3589 406.652 10.7855C406.908 11.2122 407.036 11.6815 407.036 12.1935C407.036 12.7589 406.881 13.2762 406.572 13.7455C406.263 14.2042 405.799 14.5135 405.18 14.6735C405.841 14.8122 406.391 15.1269 406.828 15.6175C407.265 16.1082 407.484 16.7535 407.484 17.5535C407.484 18.1722 407.34 18.7429 407.052 19.2655C406.775 19.7775 406.359 20.1882 405.804 20.4975C405.249 20.8069 404.561 20.9615 403.74 20.9615Z" fill="#6F6C90"/>
<ellipse cx="582.097" cy="14.1511" rx="17.0974" ry="14.1511" fill="#EFF0F7"/>
<path d="M583.324 20.7695V18.3695H577.644V17.3295L583.084 9.56953H584.652V17.1855H586.316V18.3695H584.652V20.7695H583.324ZM579.132 17.1855H583.388V11.0575L579.132 17.1855Z" fill="#6F6C90"/>
</svg>
