<svg width="493" height="24" viewBox="0 0 493 24" fill="none" xmlns="http://www.w3.org/2000/svg">
<rect x="86.9814" y="9.24609" width="99.176" height="4.17177" rx="2.08588" fill="#FFE69E"/>
<rect x="86.9814" y="9.24609" width="49.5876" height="4.17177" rx="2.08588" fill="#FFE69E"/>
<rect x="321.217" y="10.9165" width="99.176" height="4.17177" rx="2.08588" fill="#FFE69E"/>
<ellipse cx="17.7135" cy="11.8781" rx="17.1881" ry="11.82" fill="#FFE69E"/>
<path d="M16.9687 19.2915V10.0115L15.1607 10.4275V9.1795L17.6407 8.0915H18.7287V19.2915H16.9687Z" fill="black"/>
<ellipse cx="254.965" cy="11.8781" rx="17.1881" ry="11.82" fill="#FFE69E"/>
<path d="M251.93 20.2061V19.2621C252.687 18.6647 253.402 18.0621 254.074 17.4541C254.757 16.8354 255.359 16.2274 255.882 15.6301C256.415 15.0327 256.831 14.4461 257.13 13.8701C257.439 13.2941 257.594 12.7394 257.594 12.2061C257.594 11.8114 257.525 11.4434 257.386 11.1021C257.258 10.7607 257.045 10.4887 256.746 10.2861C256.447 10.0727 256.042 9.96605 255.53 9.96605C255.039 9.96605 254.629 10.0781 254.298 10.3021C253.967 10.5154 253.717 10.8034 253.546 11.1661C253.386 11.5287 253.306 11.9181 253.306 12.3341H252.01C252.01 11.5981 252.165 10.9687 252.474 10.4461C252.783 9.91272 253.205 9.50739 253.738 9.23005C254.271 8.95272 254.874 8.81405 255.546 8.81405C256.538 8.81405 257.349 9.09672 257.978 9.66205C258.618 10.2167 258.938 11.0487 258.938 12.1581C258.938 12.8194 258.773 13.4754 258.442 14.1261C258.111 14.7661 257.69 15.3901 257.178 15.9981C256.666 16.5954 256.117 17.1554 255.53 17.6781C254.954 18.2007 254.415 18.6701 253.914 19.0861H259.322V20.2061H251.93Z" fill="black"/>
<ellipse cx="475.126" cy="11.8781" rx="17.1881" ry="11.82" fill="#FFE69E"/>
<path d="M474.742 20.3981C474.028 20.3981 473.382 20.2701 472.806 20.0141C472.23 19.7474 471.766 19.3527 471.414 18.8301C471.073 18.3074 470.892 17.6567 470.87 16.8781H472.23C472.241 17.5181 472.465 18.0727 472.902 18.5421C473.34 19.0007 473.953 19.2301 474.742 19.2301C475.532 19.2301 476.124 19.0114 476.518 18.5741C476.924 18.1367 477.126 17.6087 477.126 16.9901C477.126 16.4674 476.998 16.0407 476.742 15.7101C476.497 15.3794 476.161 15.1341 475.734 14.9741C475.318 14.8141 474.86 14.7341 474.358 14.7341H473.526V13.5981H474.358C475.084 13.5981 475.649 13.4327 476.054 13.1021C476.47 12.7714 476.678 12.3074 476.678 11.7101C476.678 11.2087 476.513 10.7981 476.182 10.4781C475.862 10.1474 475.382 9.98205 474.742 9.98205C474.124 9.98205 473.628 10.1687 473.254 10.5421C472.881 10.9047 472.673 11.3634 472.63 11.9181H471.27C471.302 11.3101 471.462 10.7714 471.75 10.3021C472.049 9.83272 472.454 9.47005 472.966 9.21405C473.478 8.94739 474.07 8.81405 474.742 8.81405C475.468 8.81405 476.07 8.94205 476.55 9.19805C477.041 9.45405 477.409 9.79539 477.654 10.2221C477.91 10.6487 478.038 11.1181 478.038 11.6301C478.038 12.1954 477.884 12.7127 477.574 13.1821C477.265 13.6407 476.801 13.9501 476.182 14.1101C476.844 14.2487 477.393 14.5634 477.83 15.0541C478.268 15.5447 478.486 16.1901 478.486 16.9901C478.486 17.6087 478.342 18.1794 478.054 18.7021C477.777 19.2141 477.361 19.6247 476.806 19.9341C476.252 20.2434 475.564 20.3981 474.742 20.3981Z" fill="#6F6C90"/>
</svg>
