<svg width="47" height="38" viewBox="0 0 47 38" fill="none" xmlns="http://www.w3.org/2000/svg">
<path d="M32 27L24 19L16 27" stroke="black" stroke-opacity="0.4" stroke-width="2" stroke-linecap="round" stroke-linejoin="round"/>
<path d="M24 19V37" stroke="black" stroke-opacity="0.4" stroke-width="2" stroke-linecap="round" stroke-linejoin="round"/>
<path d="M40.7799 31.78C42.7306 30.7165 44.2716 29.0337 45.1597 26.9972C46.0477 24.9607 46.2323 22.6864 45.6843 20.5334C45.1363 18.3803 43.8869 16.471 42.1333 15.1069C40.3796 13.7427 38.2216 13.0014 35.9999 13H33.4799C32.8745 10.6585 31.7462 8.48464 30.1798 6.64195C28.6134 4.79927 26.6496 3.33567 24.4361 2.36118C22.2226 1.3867 19.817 0.926686 17.4002 1.01573C14.9833 1.10478 12.6181 1.74057 10.4823 2.8753C8.34649 4.01003 6.49574 5.61417 5.06916 7.56713C3.64259 9.52009 2.6773 11.771 2.24588 14.1508C1.81446 16.5305 1.92813 18.977 2.57835 21.3065C3.22856 23.636 4.3984 25.7877 5.99992 27.6" stroke="black" stroke-opacity="0.4" stroke-width="2" stroke-linecap="round" stroke-linejoin="round"/>
<path d="M32 27L24 19L16 27" stroke="black" stroke-opacity="0.4" stroke-width="2" stroke-linecap="round" stroke-linejoin="round"/>
</svg>
