<svg width="737" height="537" viewBox="0 0 737 537" fill="none" xmlns="http://www.w3.org/2000/svg">
<g clip-path="url(#clip0_1_89)">
<path d="M678.973 130.537C595.325 16.3572 418.622 -29.9591 244.841 19.9246C152.968 46.2967 64.3853 99.137 20.486 201.453C-57.9888 384.354 106.779 442.768 214.519 461.385C266.616 470.387 315.683 485.509 360.521 506.098C441.188 543.138 583.974 575.96 691.644 421.669C769.684 309.839 734.69 206.592 678.973 130.537Z" fill="#F2F2F2"/>
<path d="M194.009 153.127C193.775 151.312 193.302 149.535 192.601 147.84C192.512 147.52 192.356 147.221 192.142 146.963C191.928 146.705 191.662 146.493 191.361 146.342C190.958 146.239 190.536 146.234 190.13 146.328L183.812 147.277C183.283 147.3 182.777 147.493 182.37 147.826C181.547 148.675 182.358 150.042 182.332 151.213C182.304 152.53 181.111 153.599 179.818 153.953C178.497 154.215 177.135 154.198 175.821 153.904L166.986 152.558C169.588 151.743 171.905 150.227 173.67 148.182C174.833 146.831 175.451 144.309 173.771 143.669C173.272 143.535 172.751 143.494 172.237 143.548C168.234 143.579 165.084 140.3 161.336 138.92C158.938 138.093 156.334 138.032 153.898 138.744C151.462 139.456 149.318 140.906 147.772 142.886L152.479 143.109C152.922 143.085 153.361 143.2 153.733 143.437C154.764 144.268 153.482 145.865 153.627 147.166C153.816 148.858 156.105 149.219 157.831 149.39C159.556 149.561 161.745 150.936 160.915 152.43C152.242 155.36 143.416 146.701 134.307 147.767C132.002 148.037 129.825 148.925 127.574 149.484C113.825 152.896 99.6104 143.792 85.5646 145.72C82.4421 146.242 79.3731 147.036 76.3942 148.092C74.4825 148.708 72.4885 149.373 71.0995 150.801C69.7105 152.229 69.1819 154.671 70.4978 156.164C66.8709 156.457 63.2198 156.117 59.7142 155.159C60.6622 155.676 61.4508 156.434 61.9973 157.353C62.5438 158.272 62.8281 159.318 62.8202 160.382C57.1573 161.288 51.6443 162.937 46.4296 165.284C47.4029 166.872 48.5396 168.357 49.8221 169.717L42.653 174.235C45.075 174.834 46.3273 178.073 44.9188 180.097C47.4302 179.001 48.9866 176.166 51.6722 175.591C53.4315 175.214 55.2217 175.92 56.8908 176.584C58.5598 177.247 60.3943 177.89 62.1221 177.392C63.8499 176.894 65.1243 174.697 64.0264 173.297C71.4115 171.183 79.0439 170.013 86.7343 169.817C87.3276 169.743 87.9293 169.855 88.4541 170.137C89.4552 170.818 89.1918 172.29 89.1379 173.484C89.0839 174.678 90.0327 176.247 91.1206 175.709C89.8406 176.797 90.9348 178.847 92.1628 179.992C93.3908 181.137 94.8708 182.716 94.119 184.206C93.9228 184.594 93.59 184.905 93.4012 185.298C92.844 186.455 93.7287 187.805 94.7724 188.574C95.816 189.342 97.0943 189.88 97.8192 190.944C98.5442 192.009 98.215 193.872 96.9186 194.021L93.2341 189.432C91.9752 190.713 91.1122 192.317 90.7451 194.059C94.6523 197.192 95.24 203.569 91.9689 207.339C90.2973 209.265 87.9201 210.436 85.8454 211.938C83.7707 213.441 81.8509 215.581 81.8561 218.11C81.8651 222.481 81.5011 226.541 83.1707 230.593C86.2494 238.065 89.8039 245.339 93.8131 252.373C94.866 254.22 96.2266 256.245 98.3595 256.563C95.664 250.126 93.2375 243.589 91.08 236.952C92.4853 236.957 94.1091 237.067 94.9329 238.183C95.615 239.108 95.4685 240.365 95.6805 241.488C95.95 242.575 96.3996 243.612 97.0112 244.556L109.883 267.048C110.95 268.912 112.174 270.913 114.213 271.668C115.517 272.151 117.026 272.06 118.226 272.755C119.166 273.3 119.8 274.267 120.759 274.78C123.47 276.231 127.241 273.448 129.775 275.181C130.5 275.676 130.96 276.463 131.628 277.03C133.968 279.018 137.808 277.688 140.509 279.171C142.25 280.127 143.153 282.039 144.081 283.771C146.408 288.11 150.172 292.361 155.157 292.707C156.723 292.815 158.323 292.524 159.854 292.866C161.385 293.207 162.892 294.518 162.646 296.039C162.225 298.647 163.538 301.502 163.185 304.119C162.543 308.887 155.649 310.982 155.057 315.756C154.927 316.801 155.13 317.88 154.876 318.903C154.565 320.157 153.605 321.178 153.264 322.425C152.617 324.787 154.343 327.137 156.238 328.727C158.133 330.316 160.394 331.686 161.43 333.91C162.525 336.262 161.987 339.003 162.343 341.564C163.121 347.156 168.044 351.301 173.111 353.974C174.655 354.788 176.312 355.577 177.312 356.989C178.616 358.833 178.486 361.264 178.921 363.467C179.988 368.863 184.618 373.308 184.75 378.803C184.843 382.708 182.63 386.251 181.308 389.936C180.069 393.467 179.62 397.218 179.993 400.934C180.366 404.65 181.552 408.244 183.47 411.47C184.459 413.108 185.641 414.652 186.341 416.428C187.589 419.597 187.184 423.199 188.335 426.403C189.857 430.64 194.039 434.139 193.639 438.613C195.537 442.48 199.729 444.38 203.945 445.532L211.5 447.595C212.947 447.99 214.458 448.388 215.931 448.102C217.404 447.816 218.81 446.616 218.772 445.143C215.067 444.324 211.243 443.452 208.189 441.238C205.135 439.023 203.043 435.079 204.202 431.531C204.739 429.886 205.882 427.986 204.796 426.627C204.173 425.849 203.036 425.645 202.334 424.935C201.239 423.828 201.615 421.967 202.402 420.631C203.189 419.296 204.327 418.102 204.644 416.591C204.804 415.746 204.697 414.873 204.337 414.089C203.977 413.305 203.381 412.648 202.63 412.205C204.031 411.687 205.305 410.885 206.369 409.852C207.353 408.75 207.807 407.052 207.033 405.799C209.331 406.085 212.043 406.225 213.551 404.501C214.755 403.125 214.672 401.067 214.196 399.314C213.721 397.561 212.916 395.859 212.891 394.045C218.191 394.291 223.502 394.115 228.772 393.517C228.01 390.999 226.278 388.872 223.944 387.585C226.33 387.189 228.505 384.386 229.259 382.13C230.013 379.873 229.821 377.415 229.355 375.085C229.176 374.485 229.151 373.851 229.283 373.24C229.552 372.399 230.394 371.887 231.172 371.448L243.02 364.774C243.727 364.426 244.367 363.962 244.914 363.402C246.155 361.972 245.972 359.813 245.336 358.041C244.7 356.269 243.682 354.603 243.438 352.74C242.705 347.168 248.785 343.171 250.837 337.926C251.642 335.868 251.807 333.631 251.962 331.432C252.13 329.07 252.142 326.326 250.293 324.804C248.521 323.345 245.752 323.671 243.897 322.313C242.197 321.069 241.61 318.652 239.753 317.647C238.066 316.734 235.951 317.315 234.075 316.886C230.772 316.13 228.693 312.395 225.319 312.05C223.416 311.854 221.261 312.767 219.701 311.68C218.327 310.722 218.272 308.796 218.01 307.162C217.551 304.622 216.31 302.281 214.454 300.454C212.598 298.628 210.216 297.403 207.628 296.945C205.665 296.636 203.529 296.753 201.86 295.695C200.169 294.624 199.394 292.619 198.066 291.135C195.926 288.744 192.555 287.895 189.397 287.166L176.553 284.204C174.273 283.679 171.334 283.4 170.11 285.359C169.748 286.105 169.492 286.896 169.348 287.71C168.89 289.183 167.967 290.475 166.713 291.401C165.458 292.327 163.937 292.84 162.368 292.864C161.291 291.063 159.547 289.739 157.5 289.169C156.197 288.813 154.803 288.774 153.561 288.25C152.884 287.926 152.282 287.47 151.792 286.91C151.301 286.35 150.932 285.698 150.707 284.993C150.483 284.288 150.407 283.546 150.485 282.811C150.563 282.077 150.793 281.366 151.16 280.722C151.901 279.428 152.187 277.932 151.974 276.463C151.761 274.995 151.062 273.635 149.983 272.596C147.799 270.672 144.64 270.207 141.711 270.4C140.944 268.758 142.226 266.906 143.608 265.712C144.99 264.519 146.669 263.346 146.97 261.564C147.443 258.762 143.798 256.633 141.03 257.469C138.262 258.304 136.495 260.942 135.327 263.541C134.657 265.033 134.087 266.604 133.03 267.861C131.973 269.119 130.271 270.02 128.661 269.616C126.382 269.045 125.502 266.388 124.997 264.134C124.321 261.11 123.64 258.044 123.782 254.951C123.923 251.858 124.986 248.683 127.311 246.589C131.1 243.177 136.913 243.511 142.026 244.056C140.818 242.72 141.116 240.47 142.409 239.213C143.091 238.619 143.911 238.196 144.798 237.983C145.684 237.769 146.61 237.771 147.496 237.988C149.036 238.302 150.425 239.116 151.436 240.299C152.889 242.037 153.303 244.383 154.401 246.355C155.499 248.328 157.969 250.01 159.99 248.952C161.736 248.038 162.013 245.663 161.579 243.769C161.144 241.875 160.221 240.034 160.379 238.099C160.679 234.406 164.581 232.183 168.025 230.663C171.468 229.142 175.411 227.097 175.956 223.431C175.975 222.714 176.113 222.004 176.365 221.33C176.747 220.735 177.277 220.245 177.907 219.908C187.956 213.393 198.173 206.799 209.659 203.239C210.257 203.054 210.327 203.26 210.936 203.114C211.788 202.631 211.223 201.295 210.406 200.756C209.589 200.218 208.497 199.805 208.289 198.861C208.137 198.167 208.554 197.485 208.662 196.783C208.928 195.059 206.825 193.466 205.191 194.156C204.269 192.957 206.094 191.564 207.571 191.166C212.003 189.969 216.554 189.24 221.144 188.991C221.674 188.908 222.217 188.999 222.689 189.248C223.46 189.772 223.362 190.974 222.815 191.722C222.269 192.469 221.419 192.939 220.738 193.572C219.994 194.283 219.463 195.18 219.204 196.167C218.944 197.153 218.966 198.191 219.267 199.166C221.663 200.362 224.269 201.593 226.923 201.172C229.577 200.75 231.933 197.825 230.686 195.489C229.524 193.313 226.034 192.822 225.434 190.438C224.731 187.646 228.76 185.163 227.853 182.428C227.455 181.231 226.238 180.526 225.304 179.661C224.202 178.601 223.452 177.238 223.153 175.752C222.854 174.266 223.02 172.726 223.629 171.334C222.108 171.597 220.545 171.498 219.072 171.045C217.598 170.593 216.256 169.8 215.159 168.734C213.133 166.729 211.517 163.565 208.64 163.655C206 163.737 203.726 166.758 201.257 165.836C200.65 165.61 200.009 165.148 199.421 165.419C199.228 165.541 199.066 165.706 198.948 165.899C198.829 166.092 198.757 166.309 198.736 166.534C198.109 169.476 199.188 172.828 197.553 175.37C195.774 178.137 191.66 178.521 189.503 181.015C188.333 182.37 187.879 184.194 186.803 185.622C185.727 187.05 183.443 187.958 182.152 186.714C182.786 185.434 182.96 183.981 182.643 182.592C182.327 181.203 181.54 179.96 180.41 179.067C179.211 178.3 177.919 177.683 176.563 177.231C175.049 176.603 173.608 175.815 172.266 174.882C171.594 174.484 171.048 173.911 170.688 173.226C170.404 172.369 170.443 171.44 170.796 170.608C171.451 168.766 172.606 167.135 174.137 165.89C175.668 164.646 177.516 163.835 179.482 163.546C181.202 163.316 183.203 163.397 184.341 162.112C184.943 161.432 185.259 160.404 186.132 160.128C186.691 160.018 187.272 160.088 187.787 160.328L194.204 162.544C194.92 162.861 195.708 162.988 196.49 162.914C196.878 162.863 197.232 162.67 197.48 162.374C197.729 162.077 197.854 161.7 197.831 161.317C197.626 160.271 195.986 159.77 196.135 158.715C196.218 158.373 196.406 158.065 196.672 157.829C198.988 155.411 201.82 153.526 204.966 152.307C208.112 151.088 211.494 150.567 214.869 150.781C215.679 152.086 214.398 153.631 213.332 154.745C212.266 155.859 211.41 157.849 212.699 158.707C213.227 158.971 213.815 159.101 214.407 159.084C215.987 159.294 217.523 159.751 218.955 160.437C221.173 161.384 223.348 162.42 225.48 163.545C225.292 162.165 225.112 160.712 225.645 159.423C226.178 158.133 227.693 157.122 229.016 157.624C230.291 158.108 230.945 159.764 232.303 159.916C234.115 160.118 234.83 157.492 234.073 155.865C233.316 154.237 231.818 152.874 231.693 151.09C231.608 149.886 232.076 148.392 231.095 147.663C230.746 147.444 230.35 147.308 229.938 147.265L205.457 142.846C204.003 142.584 201.903 142.785 201.838 144.233C201.802 145.042 202.539 145.842 202.213 146.585C201.864 147.379 200.721 147.306 199.888 147.587C198.596 148.022 197.947 149.528 198.072 150.862C198.299 152.189 198.822 153.449 199.605 154.554C198.013 153.9 195.602 153.78 194.009 153.127Z" fill="#5176A3"/>
<path d="M174.476 132.742C172.932 132.241 171.268 132.217 169.711 132.675C168.153 133.133 166.776 134.049 165.767 135.3C165.364 135.821 165.026 136.538 165.363 137.102C165.847 137.91 167.08 137.591 167.989 137.302C169.325 136.834 170.779 136.8 172.136 137.205C172.989 137.492 173.753 138 174.61 138.277C175.027 138.448 175.484 138.505 175.932 138.441C176.379 138.376 176.801 138.194 177.15 137.913C177.739 137.324 177.776 136.409 177.777 135.585C177.817 135.309 177.795 135.028 177.711 134.762C177.627 134.496 177.483 134.251 177.29 134.046C176.947 133.851 176.562 133.74 176.166 133.72C175.279 133.559 174.477 133.099 173.898 132.421" fill="#5176A3"/>
<path d="M183.303 130.331C182.957 130.312 182.613 130.382 182.303 130.531C181.992 130.681 181.726 130.907 181.531 131.187C181.335 131.467 181.216 131.791 181.185 132.129C181.154 132.467 181.212 132.807 181.354 133.117C182.415 133.401 183.523 133.472 184.613 133.325C185.156 133.243 185.663 133.004 186.068 132.639C186.473 132.275 186.76 131.801 186.891 131.277C185.608 131.506 184.284 131.258 183.178 130.581" fill="#5176A3"/>
<path d="M212.92 126.304C210.032 126.907 207.227 127.841 204.563 129.089C205.819 129.563 206.887 130.42 207.609 131.533C208.331 132.647 208.669 133.959 208.573 135.276C208.461 135.781 208.474 136.306 208.611 136.805C208.918 137.535 209.808 137.809 210.59 137.996C211.994 138.416 213.461 138.599 214.929 138.54C215.662 138.502 216.375 138.285 217.002 137.909C217.629 137.534 218.151 137.01 218.52 136.387C218.733 135.795 218.982 135.217 219.267 134.655C221.141 131.855 226.709 135.24 228.721 132.534C229.43 131.581 229.365 130.146 230.289 129.391C230.767 129.061 231.321 128.854 231.901 128.787C235.948 127.998 240.036 127.427 244.146 127.076C246.094 126.91 248.632 126.224 248.648 124.307C241.313 122.893 233.707 123.897 227.013 127.162C224.601 128.347 221.411 130.839 219.088 129.268C218.218 128.68 218.261 127.096 217.064 126.435C215.84 125.759 214.219 126.034 212.92 126.304Z" fill="#5176A3"/>
<path d="M236.91 130.705L240.353 131.354C239.719 131.327 239.087 131.432 238.498 131.663C237.909 131.894 237.377 132.246 236.937 132.695C236.498 133.144 236.161 133.68 235.949 134.266C235.738 134.853 235.656 135.477 235.71 136.098C238.934 137.154 242.45 136.126 245.847 136.266C249.244 136.407 253.196 138.787 252.616 142.073C252.441 143.067 251.856 144.06 252.16 145.023C252.373 145.698 252.98 146.177 253.323 146.799C254.037 148.094 253.466 149.733 252.565 150.911C251.663 152.089 250.451 153.029 249.66 154.28C247.692 157.393 248.81 161.418 249.983 164.896C250.322 166.21 250.948 167.436 251.817 168.489C253.554 170.301 256.384 170.458 258.919 170.495C260.764 170.521 262.878 170.432 264.044 169.03C265.568 167.199 264.503 164.343 265.505 162.194C266.416 160.243 268.737 159.406 270.839 158.812C274.691 157.724 278.616 156.8 282.257 155.157C286.779 153.117 291.005 149.937 295.975 149.675C297.369 149.601 298.798 149.762 300.141 149.388C301.484 149.013 302.76 147.874 302.658 146.508C302.571 145.341 301.564 144.484 300.778 143.604C299.991 142.724 299.373 141.371 300.096 140.44L313.123 138.053C312.199 135.585 311.48 132.334 313.602 130.727C314.368 130.148 315.393 129.916 316.044 129.215C317.155 128.02 316.597 125.963 315.314 124.947C314.032 123.931 312.298 123.695 310.655 123.561C304.943 123.096 299.199 123.404 293.476 123.711C282.289 124.313 271.102 124.914 259.915 125.516C257.663 125.637 255.063 125.452 252.997 126.206C251.248 126.844 250.005 128.015 248.005 128.426C244.313 129.186 240.251 128.672 236.91 130.705Z" fill="#5176A3"/>
<path d="M298.598 157.404C298.247 157.35 297.889 157.43 297.596 157.627C297.403 157.836 297.287 158.104 297.27 158.385C297.047 159.629 297.312 160.909 298.011 161.969C298.367 162.489 298.859 162.906 299.434 163.177C300.01 163.448 300.65 163.562 301.286 163.509C302.836 163.315 303.979 162.017 305.404 161.384C307.601 160.409 316.932 158.889 310.477 155.469C308.253 154.29 306.816 155.331 305.063 156.107C303.068 157.108 300.833 157.556 298.598 157.404Z" fill="#5176A3"/>
<path d="M355.129 128.774C354.375 129.076 353.745 129.615 353.336 130.305C353.148 130.656 353.104 131.064 353.214 131.445C353.324 131.827 353.579 132.152 353.927 132.354C354.208 132.454 354.506 132.501 354.806 132.491L357.87 132.581C359.172 132.619 360.798 132.891 361.148 134.122C361.408 135.035 360.826 136.209 361.528 136.862C361.829 137.091 362.191 137.23 362.57 137.261C363.579 137.516 364.634 137.549 365.658 137.359C367.887 136.772 366.716 135.437 367.418 134.249C368.492 132.43 368.306 133.531 370.2 132.489C371.598 131.719 373.404 130.323 372.237 128.361C370.208 124.949 358.124 127.309 355.129 128.774Z" fill="#5176A3"/>
<path d="M415.611 127.059L413.832 127.292C409.819 127.817 405.784 128.347 401.919 129.529C403.592 130.178 405.347 130.6 407.136 130.785C408.121 130.832 409.099 130.969 410.059 131.192C411.766 131.691 413.486 132.978 415.135 132.319C416.157 131.91 416.491 130.865 417.338 130.312C417.923 129.93 420.141 129.311 420.389 128.926C422.394 125.807 417.152 126.857 415.611 127.059Z" fill="#5176A3"/>
<path d="M423.425 134.992C421.048 136.296 418.843 137.88 416.858 139.709C416.022 140.48 415.168 141.439 415.244 142.562C415.345 144.054 416.966 144.92 418.37 145.504L424.058 147.866C424.749 146.912 424.117 145.595 423.404 144.657C422.691 143.72 421.843 142.635 422.158 141.507C422.518 140.219 424.118 139.781 425.46 139.559C427.647 139.197 433.545 139.226 432.836 135.77C432.001 131.697 425.62 133.788 423.425 134.992Z" fill="#5176A3"/>
<path d="M422.281 365.482C421.739 367.02 421.688 368.831 422.625 370.174C423.676 371.681 425.779 372.242 427.599 371.86C429.412 371.387 431.027 370.368 432.218 368.947C433.307 367.757 434.203 366.409 434.874 364.951C435.812 362.679 436.472 360.307 436.844 357.884L438.61 348.788C439.004 346.755 438.989 340.522 435.18 342.553C434.139 343.108 431.73 347.488 430.64 348.73C428.674 350.968 428.414 353.14 427.379 355.852C426.083 359.249 423.479 362.08 422.281 365.482Z" fill="#5176A3"/>
<path d="M623.462 412.03C622.216 411.552 621.006 410.988 619.843 410.339C618.676 413.486 618.056 416.801 618.008 420.149L626.536 415.415C627.819 414.703 629.274 413.713 629.246 412.267C629.258 412.089 629.22 411.91 629.137 411.751C629.054 411.592 628.929 411.457 628.774 411.362C628.585 411.287 628.379 411.263 628.177 411.293C626.912 411.396 625.759 412.007 624.566 412.431C623.373 412.856 621.978 413.08 620.883 412.45" fill="#5176A3"/>
<path d="M668.453 414.84C667.517 415.09 666.602 415.412 665.718 415.803C663.76 416.78 662.429 418.635 660.668 419.922C658.982 421.153 656.954 421.829 654.962 422.486C654.376 422.994 654.645 424.017 655.281 424.464C655.965 424.845 656.749 425.018 657.534 424.96C659.603 425.005 661.783 425.025 663.595 424.044C664.616 423.394 665.572 422.65 666.449 421.822C668.568 420.088 671.113 418.944 673.632 417.838C674.549 417.498 675.397 417.001 676.136 416.369C677.718 414.84 677.83 412.48 675.547 411.959C673.703 411.538 670.209 414.283 668.453 414.84Z" fill="#5176A3"/>
<path d="M688.331 402.103C688.434 401.05 688.291 399.988 687.914 398.998C687.537 398.007 686.935 397.113 686.155 396.384C686.131 398.49 686.066 400.734 684.859 402.476C683.998 403.716 682.649 404.555 681.707 405.737C680.764 406.919 680.346 408.792 681.451 409.829C682.158 410.357 683.019 410.648 683.907 410.659C686.108 410.913 688.655 411.055 690.199 409.495C691.041 408.644 691.451 407.383 692.479 406.757C692.862 406.599 693.203 406.359 693.479 406.055C693.903 405.393 693.229 404.521 692.47 404.283C691.711 404.044 690.875 404.156 690.113 403.93C689.35 403.703 688.65 402.862 689.041 402.181" fill="#5176A3"/>
<path d="M653.001 324.886C651.846 325.162 650.65 325.231 649.47 325.091C647.511 324.737 645.986 323.289 644.404 322.101C640.644 319.292 636.072 317.725 631.347 317.626C627.048 317.546 622.71 318.689 618.488 317.891C618.764 319.396 620.077 320.525 621.477 321.196C622.878 321.867 624.424 322.204 625.831 322.862C628.085 323.925 629.873 325.749 630.867 328C631.32 329.038 631.605 330.168 632.292 331.074C633.696 332.927 636.356 333.333 638.703 333.182C641.764 332.984 644.961 332.121 647.809 333.239C649.987 334.095 651.547 335.966 653.366 337.42C655.185 338.874 657.747 339.954 659.835 338.904C657.666 338.215 655.777 336.864 654.446 335.048C653.115 333.232 652.41 331.046 652.435 328.809C654.484 328.994 660.384 328.922 660.066 325.508C659.797 322.614 654.76 324.574 653.001 324.886Z" fill="#5176A3"/>
<path d="M626.202 348.43C626.566 346.473 628.555 344.745 627.936 342.851C627.507 341.541 625.959 340.894 624.557 340.862C623.155 340.83 621.778 341.239 620.376 341.278C619.463 341.23 618.549 341.243 617.638 341.316C614.855 341.765 613.14 344.626 610.518 345.643C608.923 346.262 607.132 346.143 605.474 346.571C601.709 347.542 599.327 351.031 596.696 353.844C592.444 358.37 586.905 361.538 580.796 362.94C578.655 363.426 576.355 363.737 574.653 365.101C572.4 366.907 571.846 370.002 571.344 372.814C569.96 380.577 567.843 388.199 565.022 395.579L573.961 396.698C575.661 396.911 577.421 397.119 579.059 396.626C580.249 396.185 581.376 395.596 582.412 394.874C586.393 392.449 590.849 390.871 595.491 390.243C597.831 389.927 600.286 389.87 602.482 390.723C604.679 391.577 606.563 393.512 606.747 395.823C607.697 395.533 608.71 395.502 609.676 395.732C610.643 395.963 611.528 396.447 612.236 397.132C613.636 398.531 614.552 400.326 614.856 402.263C615.092 403.463 615.327 404.9 616.462 405.403C617.388 405.814 618.45 405.372 619.463 405.292C622.899 405.023 625.751 408.953 629.129 408.276C632.751 407.55 633.641 402.229 637.175 401.162C639.205 400.55 642.052 401.295 643.024 399.443C643.881 397.81 642.171 395.926 642.348 394.098C642.565 391.848 645.271 390.892 647.358 389.932C654.551 386.621 657.964 377.124 654.479 370.12C652.413 365.97 648.35 362.703 647.599 358.144C647.022 354.636 648.432 350.546 646.152 347.785C644.992 346.381 643.028 345.605 642.338 343.929C641.904 342.875 642.078 341.678 641.844 340.563C641.611 339.449 640.62 338.283 639.498 338.572C636.241 339.411 635.202 349.278 633.459 351.676C630.808 355.321 625.368 352.92 626.202 348.43Z" fill="#5176A3"/>
<path d="M566.011 328.615C564.898 328.309 563.683 328.007 562.617 328.445C561.55 328.882 560.928 330.418 561.784 331.18C568.479 330.924 575.215 330.67 581.853 331.562C589.501 332.589 597.07 335.135 604.752 334.386C600.364 333.116 595.903 332.101 591.393 331.345L583.873 329.936C581.856 329.521 579.817 329.212 577.767 329.01C573.476 328.663 570.229 329.775 566.011 328.615Z" fill="#5176A3"/>
<path d="M572.713 305.742C572.158 305.697 571.469 305.657 571.182 306.126C570.907 306.574 571.221 307.166 571.074 307.668C570.872 308.354 569.956 308.529 569.234 308.436C568.512 308.342 567.732 308.119 567.092 308.46C566.768 308.677 566.524 308.992 566.398 309.357C566.271 309.721 566.269 310.117 566.39 310.483C566.652 311.21 567.075 311.871 567.628 312.419C568.574 313.587 569.652 314.648 570.84 315.579C573.141 317.245 576.259 318.048 577.708 320.466C577.912 320.935 578.227 321.35 578.625 321.677C579.321 322.11 580.228 321.781 580.977 321.445L583.603 320.268C584.076 320.101 584.498 319.819 584.831 319.449C585.431 318.651 585.062 317.515 584.559 316.655C584.055 315.795 583.41 314.905 583.519 313.919C583.711 312.161 586.016 311.488 586.964 309.984C587.919 308.467 587.297 306.513 587.407 304.734C587.536 302.653 588.869 299.946 586.724 298.391C584.902 297.07 583.159 298.291 581.851 299.75C579.091 302.826 577.786 306.158 572.713 305.742Z" fill="#5176A3"/>
<path d="M588.652 274.65C589.548 276.334 591.417 277.338 592.395 278.978C593.454 280.755 593.334 283.052 594.483 284.774C595.662 286.542 598.036 287.48 598.697 289.49C599.419 291.685 597.781 294.353 599.087 296.27C599.33 296.584 599.638 296.844 599.989 297.035C600.341 297.226 600.729 297.343 601.129 297.379C601.529 297.415 601.932 297.369 602.313 297.245C602.695 297.12 603.045 296.919 603.343 296.654C603.893 296.066 604.188 295.29 604.164 294.492C604.14 293.694 603.799 292.936 603.214 292.381C602.441 291.69 601.33 291.391 600.685 290.583C600.349 290.117 600.125 289.582 600.03 289.019C599.678 287.394 599.734 285.709 600.194 284.11C600.367 283.704 600.411 283.257 600.32 282.826C600.029 281.997 598.885 281.938 598.082 281.554C596.259 280.681 596.303 278.156 596.622 276.191C596.41 277.499 591.657 275.273 591.16 274.532C590.171 273.059 590.709 270.219 590.513 268.591C588.379 269.6 587.556 272.591 588.652 274.65Z" fill="#5176A3"/>
<path d="M540.774 300.556C539.896 299.592 538.575 298.585 537.399 299.166C536.502 299.609 536.255 300.826 536.607 301.75C537.035 302.646 537.695 303.417 538.52 303.987C540.971 305.97 543.61 307.759 545.748 310.064C549.574 314.189 551.601 319.754 555.762 323.554C556.599 324.434 557.706 325.022 558.915 325.227C560.128 325.338 561.489 324.577 561.628 323.39C561.743 322.413 561.049 321.538 560.37 320.814C558.753 319.089 556.984 317.502 555.458 315.7C554.753 315.008 554.31 314.1 554.202 313.128C554.195 312.157 555.097 311.142 556.055 311.382C554.889 311.09 554.025 309.185 552.314 308.827C550.885 308.528 550.539 309.396 548.837 308.68C545.592 307.315 543.046 303.051 540.774 300.556Z" fill="#5176A3"/>
<path d="M617.024 206.765C616.093 206.493 615.178 206.173 614.283 205.804C611.873 205.095 608.685 206.832 609.006 209.279C609.22 210.905 610.763 212.002 611.615 213.412C612.878 215.504 612.541 218.157 611.877 220.5C611.714 221.225 611.404 221.911 610.966 222.516C610.352 223.155 609.619 223.673 608.807 224.04C605.553 225.829 602.683 228.221 600.357 231.081C600.104 231.345 599.928 231.671 599.846 232.025C599.732 232.851 600.578 233.453 601.057 234.142C602.121 235.673 601.352 237.733 601.457 239.583C601.441 239.845 601.493 240.106 601.609 240.342C601.724 240.578 601.9 240.782 602.118 240.933C602.759 241.252 603.518 240.71 603.866 240.092C605.019 238.043 604.15 234.754 606.313 233.767C606.722 233.58 607.218 233.501 607.491 233.148C607.924 232.589 607.506 231.761 607.726 231.093C608.055 230.089 609.455 230.044 610.529 230.088C612.379 230.164 614.228 229.923 615.993 229.375C616.686 229.213 617.315 228.856 617.802 228.347C618.449 227.556 618.391 226.43 618.262 225.424C617.615 220.407 615.995 215.558 613.49 211.139C615.389 211.377 617.456 211.583 619.096 210.612C620.014 210.068 621.115 208.441 620.66 207.334C619.939 205.584 618.639 207.057 617.024 206.765Z" fill="#5176A3"/>
<path d="M373.458 234.357C373.685 235.553 373.908 236.812 373.509 237.964C373.109 239.116 371.852 240.079 370.665 239.726C369.744 239.452 369.211 238.543 368.557 237.85C364.919 233.998 356.711 236.228 354.464 231.462C353.546 229.517 354.17 227.186 353.544 225.133C353.149 223.946 352.364 222.921 351.311 222.22C350.259 221.518 348.998 221.179 347.728 221.257C346.569 221.421 345.442 221.751 344.381 222.237C337.275 225.028 329.815 226.859 322.207 227.677C320.761 227.764 319.33 228.019 317.946 228.438C314.822 229.549 312.687 232.39 311.168 235.289C309.649 238.189 308.527 241.327 306.49 243.903C304.35 246.61 301.35 248.506 298.552 250.556C297.474 251.238 296.577 252.161 295.933 253.249C295.327 254.47 295.361 255.891 295.408 257.249L295.98 273.743C296.054 275.864 296.146 278.062 297.114 279.96C298.323 282.331 300.71 283.884 302.367 285.978C304.057 288.13 304.938 290.789 304.86 293.505C304.824 294.597 304.714 295.888 305.581 296.574C306.108 296.909 306.725 297.083 307.354 297.074L330.098 298.9C334.099 299.221 338.533 299.75 341.146 302.74C342.378 304.151 343.369 306.18 345.257 306.332C346.067 306.397 346.855 306.07 347.665 306.007C349.709 305.849 351.505 307.37 352.638 309.046C354.353 311.601 355.131 314.652 354.846 317.698C354.66 319.61 354.055 321.469 353.925 323.385C353.429 330.677 359.731 337.012 359.853 344.32C359.925 348.618 357.845 352.634 355.817 356.444C359.09 361.308 356.41 367.785 357.713 373.471C358.949 378.865 363.535 383.088 364.677 388.503C365.2 390.981 365.231 394.032 367.459 395.308C368.436 395.776 369.52 395.989 370.606 395.926C377.156 396.003 383.63 394.557 389.501 391.707C392.256 390.366 395.111 388.364 395.593 385.384C395.981 382.98 394.738 380.292 396.003 378.199C397.493 375.732 401.31 375.928 403.503 374.031C407.06 370.953 404.286 365.085 405.727 360.653C407.023 356.669 411.482 354.552 413.692 350.976C414.562 349.438 415.187 347.779 415.543 346.055C416.556 341.936 417.186 337.735 417.427 333.505C417.486 330.934 417.679 328.368 418.006 325.817C420.389 311.294 435.026 301.568 439.779 287.616C440.232 286.283 440.446 284.508 439.237 283.754C438.52 283.419 437.708 283.336 436.936 283.518L426.451 284.815C425.149 284.976 423.768 285.126 422.572 284.596C421.376 284.065 420.519 282.581 421.153 281.454C422.934 278.29 419.271 274.291 417.644 271.049C413.261 262.317 408.042 254.014 402.056 246.252C401.673 245.853 401.433 245.342 401.373 244.797L404.349 244.894C403.344 241.358 401.687 237.489 398.185 236.196C396.212 235.467 394.026 235.719 391.921 235.832C385.891 236.155 379.426 235.262 373.458 234.357Z" fill="#5176A3"/>
<path d="M391.926 154.68C393.504 156.324 395.272 158.066 397.555 158.353C401.588 158.859 404.487 154.768 406.333 151.215C406.402 152.121 406.828 152.965 407.52 153.568C408.213 154.17 409.119 154.484 410.043 154.442C411.039 154.278 411.989 153.913 412.834 153.372C420.824 149.089 429.773 146.819 438.878 146.767C438.791 146.091 438.962 145.406 439.358 144.846C439.755 144.286 440.349 143.89 441.026 143.734C442.877 143.374 444.545 144.944 445.438 146.575C446.331 148.206 446.888 150.096 448.306 151.317C449.725 152.538 452.472 152.485 453.033 150.717C453.571 149.02 451.768 147.573 450.271 146.572C448.773 145.571 447.195 143.72 448.203 142.243C455.853 140.582 463.551 138.914 471.379 138.584C472.712 138.63 474.04 138.405 475.28 137.925C476.474 137.35 477.423 136.046 477.102 134.78C475.394 135.174 473.605 135.06 471.963 134.452C470.321 133.845 468.9 132.771 467.883 131.369C478.745 130.49 490.298 129.74 499.924 134.754C501.079 137.186 495.192 139.21 496.767 141.404C497.269 142.104 498.276 142.186 499.148 142.202C505.838 142.324 512.566 142.443 519.18 141.453C521.597 141.091 524.038 140.579 526.465 140.873C530.506 141.362 533.963 144.007 537.94 144.87C539.558 145.221 541.373 145.233 542.737 144.309C544.102 143.386 544.688 141.284 543.57 140.083C547.314 136.484 553.528 137.376 558.467 139.099C563.406 140.822 568.085 143.601 573.313 143.985C577.062 144.261 580.862 143.272 584.567 143.9C586.894 144.295 589.061 145.311 591.336 145.935C595.638 147.116 600.19 146.866 604.658 146.923C616.056 147.074 627.331 149.271 637.922 153.407C639.3 153.847 640.562 154.579 641.62 155.55C642.605 156.585 643.108 158.194 642.446 159.453L631.501 157.884C632.532 159.875 635.2 160.215 637.367 160.902C639.533 161.589 641.779 163.935 640.477 165.768C638.13 165.035 636.003 167.337 634.817 169.455C633.631 171.573 632.186 174.11 629.726 174.239C627.523 174.354 624.859 172.514 623.423 174.157C625.407 176.612 627.106 179.276 628.488 182.1C629.906 184.999 630.917 188.652 628.999 191.26C628.698 191.725 628.24 192.073 627.705 192.244C626.14 192.633 625.122 190.754 623.999 189.615C622.584 188.18 620.444 187.773 618.528 187.1C616.612 186.427 614.593 185.103 614.443 183.112C614.35 181.873 615.016 180.721 615.508 179.576C616.333 177.646 616.694 175.556 616.563 173.467C616.455 171.786 615.975 170.038 614.744 168.863C613.514 167.689 611.39 167.317 610.069 168.392C609.452 168.894 608.958 169.697 608.158 169.727C606.744 169.78 605.658 167.361 604.52 168.187C604.653 169.066 604.467 169.964 603.995 170.723C600.599 173.62 595.383 172.394 591.006 173.418C588.924 174.002 586.932 174.856 585.08 175.956C584.387 176.247 583.798 176.732 583.386 177.351C582.84 178.392 583.442 179.726 584.405 180.419C585.427 181.033 586.574 181.418 587.765 181.544C593.102 182.535 598.516 184.07 602.729 187.432C606.942 190.795 609.705 196.353 608.372 201.517L597.848 191.653C598.248 195.795 598.475 199.948 598.529 204.112C598.597 204.926 598.483 205.743 598.195 206.509C597.445 208.134 595.412 208.681 593.63 209.04C593.134 209.133 592.664 209.327 592.251 209.61C591.837 209.893 591.489 210.259 591.23 210.683C590.97 211.108 590.806 211.581 590.746 212.073C590.687 212.564 590.734 213.062 590.885 213.535C591.518 215.559 593.096 217.137 594.541 218.709C595.987 220.282 597.409 222.069 597.598 224.178C597.788 226.287 596.165 228.664 594.012 228.518C592.38 228.407 591.169 226.973 590.473 225.521C589.776 224.068 589.362 222.45 588.316 221.216C585.15 217.481 578.038 219.081 575.201 215.099C574.478 215.903 573.977 216.876 573.745 217.924C573.512 218.972 573.557 220.061 573.875 221.087C575.194 220.277 577.001 221.03 577.992 222.207C578.984 223.384 579.451 224.894 580.23 226.216C581.281 228.001 582.953 229.583 583.099 231.639C583.061 232.416 583.074 233.195 583.139 233.971C583.4 235.216 584.473 236.11 585.217 237.152C586.949 239.574 586.863 242.902 585.747 245.651C584.631 248.399 582.626 250.696 580.64 252.923C577.172 256.812 573.632 260.679 569.52 263.909C568.346 264.83 567.094 265.737 566.363 267.025C565.632 268.314 565.595 270.122 566.718 271.102C565.914 271.142 564.473 271.53 563.67 271.569C563.387 268.407 563.326 265.23 563.486 262.059C560.315 260.566 556.9 264.566 557.31 267.993C557.719 271.42 560.246 274.17 562.045 277.136C563.361 279.304 564.339 281.832 563.899 284.319C563.46 286.805 561.198 289.099 558.635 288.879C554.559 288.53 552.854 282.79 548.817 282.133C548.461 282.051 548.087 282.088 547.755 282.237C547.155 282.559 547.051 283.346 547.018 284.015C546.853 287.302 546.71 290.719 548.017 293.75C549.931 298.183 554.874 301.906 553.837 306.611C548.251 304.064 545.347 297.92 544.028 292.017C542.71 286.115 542.49 279.918 540.126 274.339C538.331 276.595 534.559 274.73 532.919 272.362C531.364 270.118 530.407 267.521 528.898 265.247C527.39 262.972 525.079 260.935 522.316 260.81C519.418 260.679 516.906 262.629 514.696 264.472C512.879 265.988 511.013 267.562 509.951 269.657C508.405 272.705 508.81 276.299 508.735 279.702C508.655 283.382 507.86 287.264 505.303 289.958C502.746 292.652 498.027 293.59 495.208 291.162C493.735 289.895 493.023 288.001 492.388 286.183C489.327 277.421 486.778 268.495 484.753 259.449C484.279 261.514 482.431 264.175 480.665 262.959C480.269 262.632 479.948 262.226 479.724 261.768C476.43 256.292 470.33 253.008 464.167 251.039C458.005 249.069 451.52 248.151 445.426 245.986C442.011 244.773 438.749 243.179 435.704 241.236C434.928 242.354 434.475 243.658 434.392 245.009C434.31 246.359 434.602 247.707 435.237 248.908C436.589 251.256 439.648 252.615 442.266 251.794C443.62 251.37 444.763 250.448 446.105 249.993C447.448 249.538 449.25 249.761 449.837 251.03C450.399 252.245 449.55 253.714 449.971 254.983C450.613 256.914 453.583 257.063 454.622 258.821C455.394 260.129 454.758 261.865 453.655 262.921C452.552 263.976 451.08 264.555 449.733 265.289C445.363 267.673 442.256 271.742 438.437 274.907C434.618 278.073 429.23 280.384 424.679 278.354C425.764 272.965 419.22 269.009 418.016 263.645C417.62 261.879 417.826 260.003 417.26 258.283C416.441 255.792 414.188 254.079 412.339 252.191C410.097 249.876 408.351 247.145 407.203 244.157C406.054 241.169 405.528 237.987 405.654 234.796C405.754 232.579 406.169 230.326 405.654 228.165C405.139 226.004 403.315 223.913 401.055 224.011C395.893 224.234 389.39 224.611 386.682 220.295C385.715 218.754 385.295 216.498 386.692 215.317C387.678 214.485 389.133 214.563 390.428 214.688L402.059 215.81C404.779 216.073 407.72 216.29 410.054 214.895C412.388 213.5 413.4 209.797 411.238 208.155C409.659 206.956 406.829 207.021 406.37 205.115C405.988 203.527 407.78 201.725 406.812 200.398C406.118 199.446 404.558 199.71 403.613 200.424C402.667 201.137 401.982 202.18 400.924 202.72C399.068 203.668 396.85 202.766 394.853 202.153C392.857 201.54 390.18 201.488 389.211 203.307C388.128 205.342 390.172 208.008 389.097 210.046C387.676 212.742 382.863 211.207 380.867 213.526C378.577 216.186 382.426 220.153 381.653 223.552C380.667 224.031 379.571 224.251 378.473 224.19C377.374 224.13 376.31 223.791 375.385 223.206C374.475 222.599 373.75 221.762 373.286 220.782C372.823 219.803 372.639 218.719 372.754 217.646C372.945 216.117 373.757 214.556 373.213 213.111C372.773 211.943 371.577 211.248 370.466 210.645L359.163 204.519C358.114 206.428 359.441 208.795 361.1 210.23C362.759 211.664 364.837 212.744 365.927 214.632C366.616 215.939 366.771 217.456 366.359 218.872C365.947 220.287 365 221.495 363.711 222.249C363.549 222.359 363.365 222.432 363.172 222.465C362.978 222.498 362.78 222.49 362.59 222.441C362.41 222.337 362.253 222.199 362.128 222.034C362.003 221.869 361.913 221.682 361.864 221.482C359.869 216.476 356.875 211.541 352.088 208.926C347.302 206.311 340.423 206.848 337.284 211.253C336.539 212.3 336.038 213.492 335.389 214.599C331.938 220.476 324.54 223.259 317.629 223.077C316.953 223.114 316.28 222.959 315.691 222.631C314.574 221.874 314.624 220.268 314.795 218.947L315.521 213.341C315.667 212.215 315.878 210.971 316.786 210.268C318.067 209.277 319.914 209.902 321.544 209.879C322.78 209.823 323.967 209.395 324.946 208.653C325.925 207.912 326.648 206.894 327.018 205.736C327.347 204.567 327.345 203.331 327.011 202.163C326.678 200.995 326.026 199.938 325.126 199.107C324.378 198.418 323.375 197.553 323.77 196.625C323.927 196.368 324.14 196.148 324.394 195.981C324.647 195.813 324.935 195.703 325.237 195.656C328.166 194.822 331.26 194.603 334.141 193.618C337.021 192.634 339.814 190.62 340.496 187.704C340.705 186.81 340.8 185.728 341.618 185.285C342.029 185.115 342.47 185.026 342.916 185.025C344.477 184.807 345.899 184.023 346.901 182.829C347.903 181.634 348.413 180.114 348.33 178.569C349.711 177.623 351.644 178.319 352.98 179.326C354.315 180.332 355.494 181.661 357.119 182.095C360.147 182.904 363.073 180.274 366.211 180.262C367.531 180.256 368.897 180.714 370.139 180.275C371.397 179.83 372.149 178.601 373.115 177.693C374.081 176.785 375.776 176.232 376.668 177.21L375.908 171.691C377.438 172.07 379.032 172.124 380.585 171.848C382.137 171.573 383.612 170.975 384.909 170.095L375.093 166.841C374.751 166.757 374.436 166.592 374.175 166.36C373.461 165.606 374.17 164.431 374.75 163.574C376.139 161.524 376.372 158.147 374.089 157.127C372.53 156.43 370.742 157.266 369.246 158.084L362.081 162.003C361.853 163.339 363.519 164.096 364.551 164.996C365.175 165.54 365.617 166.257 365.819 167.053C366.02 167.848 365.971 168.685 365.679 169.452C365.387 170.22 364.865 170.883 364.182 171.355C363.498 171.826 362.686 172.084 361.85 172.094C362.322 172.695 362.65 173.394 362.81 174.136C362.969 174.879 362.956 175.648 362.772 176.385L357.951 176.725C357.41 176.832 356.848 176.724 356.388 176.426C355.872 175.976 355.942 175.189 355.822 174.523C355.534 172.915 353.929 171.788 352.291 171.499C350.653 171.21 348.977 171.581 347.355 171.946C346.666 172.19 345.91 172.172 345.233 171.898C344.845 171.651 344.55 171.286 344.394 170.859C343.683 169.168 344.347 167.18 345.49 165.733C346.632 164.287 348.195 163.23 349.599 162.025C352.957 159.135 355.425 155.381 356.722 151.188C359.376 150.098 362.123 148.616 364.777 147.525C368.869 145.493 373.457 144.621 378.026 145.007L387.013 145.175C389.674 145.225 392.407 145.289 394.867 146.284C397.328 147.279 399.49 149.431 399.66 152.037C399.711 152.332 399.685 152.634 399.584 152.917C399.483 153.199 399.311 153.452 399.083 153.651C398.736 153.837 398.342 153.924 397.947 153.902C395.466 153.988 394.407 154.594 391.926 154.68Z" fill="#5176A3"/>
<path d="M320.291 182.309C320.642 181.983 320.895 181.569 321.021 181.111C321.148 180.653 321.143 180.17 321.008 179.715C320.154 179.391 319.224 179.308 318.324 179.475C317.425 179.642 316.59 180.051 315.915 180.658C315.382 181.186 314.923 181.781 314.55 182.428C313.369 184.318 312.324 186.575 313.009 188.688C313.065 188.918 313.167 189.136 313.309 189.327C313.452 189.518 313.632 189.679 313.839 189.801C314.145 189.922 314.476 189.973 314.806 189.95C316.107 189.948 317.406 189.87 318.698 189.715C319.491 189.62 320.412 189.4 320.718 188.676C321.121 187.725 320.146 186.648 320.43 185.656C320.618 185.213 320.901 184.815 321.261 184.49C321.44 184.326 321.577 184.124 321.662 183.899C321.747 183.674 321.777 183.433 321.751 183.195C321.636 182.73 320.91 182.466 320.648 182.87" fill="#5176A3"/>
<path d="M327.037 173.73C325.882 173.469 324.69 173.396 323.51 173.512C323.25 173.505 322.991 173.562 322.759 173.68C322.534 173.843 322.371 174.074 322.296 174.338C322.047 175.122 322.108 175.97 322.467 176.713C322.827 177.455 323.458 178.037 324.236 178.343C324.659 178.439 325.065 178.599 325.439 178.817C326.436 179.576 325.8 181.128 325.989 182.353C326.201 183.728 327.558 184.882 327.309 186.251C327.113 187.33 325.939 188.184 326.128 189.264C326.326 190.395 327.789 190.734 328.955 190.825C329.631 190.941 330.327 190.863 330.958 190.6C331.591 190.175 332.041 189.536 332.222 188.805C332.699 187.411 332.9 185.94 332.813 184.472C332.808 183.804 332.637 183.147 332.315 182.559C331.964 182.093 331.574 181.656 331.151 181.252C328.917 178.702 331.269 174.9 327.037 173.73Z" fill="#5176A3"/>
<path opacity="0.8" d="M620.847 373.442C620.847 373.442 449.72 277.085 376.047 295.342C376.047 295.342 219.913 311.824 201.818 348.085C201.818 348.085 152.186 195.943 134.091 190.871" stroke="#FFE79F" stroke-width="2" stroke-miterlimit="10"/>
<path opacity="0.8" d="M201.818 348.085C230.511 273.028 489.012 189.857 489.012 189.857C452.305 198.985 376.047 295.342 376.047 295.342C376.047 295.342 214.743 180.221 134.091 190.871C134.091 190.871 489.27 202.282 620.847 373.442" stroke="#FFE79F" stroke-width="2" stroke-miterlimit="10"/>
<path d="M134.091 198.225C138.231 198.225 141.587 194.932 141.587 190.871C141.587 186.81 138.231 183.518 134.091 183.518C129.951 183.518 126.594 186.81 126.594 190.871C126.594 194.932 129.951 198.225 134.091 198.225Z" fill="#FFE79F"/>
<path d="M201.818 355.438C205.958 355.438 209.315 352.146 209.315 348.085C209.315 344.024 205.958 340.731 201.818 340.731C197.678 340.731 194.322 344.024 194.322 348.085C194.322 352.146 197.678 355.438 201.818 355.438Z" fill="#FFE79F"/>
<path d="M489.012 197.21C493.152 197.21 496.509 193.918 496.509 189.857C496.509 185.796 493.152 182.503 489.012 182.503C484.872 182.503 481.516 185.796 481.516 189.857C481.516 193.918 484.872 197.21 489.012 197.21Z" fill="#FFE79F"/>
<path d="M620.847 380.795C624.987 380.795 628.344 377.503 628.344 373.442C628.344 369.38 624.987 366.088 620.847 366.088C616.707 366.088 613.351 369.38 613.351 373.442C613.351 377.503 616.707 380.795 620.847 380.795Z" fill="#FFE79F"/>
<path d="M376.047 302.696C380.187 302.696 383.544 299.403 383.544 295.342C383.544 291.281 380.187 287.989 376.047 287.989C371.907 287.989 368.551 291.281 368.551 295.342C368.551 299.403 371.907 302.696 376.047 302.696Z" fill="#FFE79F"/>
</g>
<defs>
<clipPath id="clip0_1_89">
<rect width="737" height="537" fill="white"/>
</clipPath>
</defs>
</svg>
